<?xml version="1.0" encoding="iso-8859-1"?>
<!-- Generator: Adobe Illustrator 18.1.1, SVG Export Plug-In . SVG Version: 6.00 Build 0)  -->
<svg version="1.1" id="Capa_1" xmlns="http://www.w3.org/2000/svg" xmlns:xlink="http://www.w3.org/1999/xlink" x="0px" y="0px"
	 viewBox="0 0 26.901 26.901" style="enable-background:new 0 0 26.901 26.901;" xml:space="preserve">
<g>
	<path d="M24.514,6.516H21.47v2.07h1.399c0.713,0,1.292,0.578,1.292,1.291v13.66c0,0.715-0.579,1.295-1.292,1.295H9.948
		c-0.713,0-1.29-0.58-1.29-1.295v-1.398H6.683v3.139c0,0.896,0.725,1.623,1.62,1.623h16.211c0.894,0,1.619-0.727,1.619-1.623V8.137
		C26.133,7.244,25.409,6.516,24.514,6.516z"/>
	<path d="M20.218,18.76V1.621C20.218,0.728,19.49,0,18.598,0H2.386C1.491,0,0.767,0.729,0.767,1.621V18.76
		c0,0.898,0.724,1.623,1.619,1.623h16.212C19.492,20.383,20.218,19.658,20.218,18.76z"/>
	<g>
	</g>
	<g>
	</g>
	<g>
	</g>
	<g>
	</g>
	<g>
	</g>
	<g>
	</g>
	<g>
	</g>
	<g>
	</g>
	<g>
	</g>
	<g>
	</g>
	<g>
	</g>
	<g>
	</g>
	<g>
	</g>
	<g>
	</g>
	<g>
	</g>
</g>
<g>
</g>
<g>
</g>
<g>
</g>
<g>
</g>
<g>
</g>
<g>
</g>
<g>
</g>
<g>
</g>
<g>
</g>
<g>
</g>
<g>
</g>
<g>
</g>
<g>
</g>
<g>
</g>
<g>
</g>
</svg>
