<svg xmlns="http://www.w3.org/2000/svg" height="64pt" version="1.1" viewBox="-7 0 64 64.424679" width="64pt">
<g id="surface1">
<path d="M 47.859375 2.042969 C 45.164062 -0.667969 40.773438 -0.683594 38.0625 2.011719 C 38.054688 2.023438 38.042969 2.03125 38.035156 2.042969 L 30.0625 10.011719 L 28.785156 8.6875 C 28.304688 8.207031 27.53125 8.207031 27.054688 8.6875 L 23.257812 12.480469 C 22.785156 12.960938 22.785156 13.734375 23.257812 14.214844 L 24.585938 15.539062 L 9.335938 30.789062 C 6.953125 33.171875 3.910156 43.632812 3.5625 44.816406 C 3.371094 45.464844 3.746094 46.144531 4.398438 46.339844 C 4.523438 46.371094 4.660156 46.390625 4.789062 46.386719 C 4.90625 46.402344 5.023438 46.402344 5.132812 46.386719 C 6.363281 46.042969 16.789062 42.996094 19.160156 40.613281 L 34.359375 25.324219 L 35.6875 26.652344 C 36.164062 27.128906 36.941406 27.128906 37.417969 26.652344 L 41.214844 22.855469 C 41.6875 22.378906 41.6875 21.605469 41.214844 21.125 L 39.886719 19.796875 L 47.859375 11.828125 C 50.554688 9.128906 50.554688 4.746094 47.859375 2.042969 Z M 17.378906 38.882812 C 16.148438 40.109375 10.773438 42.0625 6.585938 43.378906 C 7.898438 39.175781 9.851562 33.808594 11.078125 32.585938 L 26.316406 17.273438 L 32.628906 23.582031 Z M 36.546875 24.144531 L 25.863281 13.464844 L 27.914062 11.410156 L 38.585938 22.082031 Z M 46.113281 10.195312 L 38.144531 18.167969 L 31.828125 11.855469 L 39.816406 3.773438 C 41.558594 2.03125 44.382812 2.03125 46.125 3.773438 C 47.867188 5.515625 47.867188 8.34375 46.125 10.085938 Z M 46.113281 10.195312 " style=" stroke:none;fill-rule:nonzero;fill:rgb(0%,0%,0%);fill-opacity:1;" />
<path d="M 0.210938 59.894531 C 0.210938 62.398438 2.238281 64.425781 4.742188 64.425781 C 7.246094 64.425781 9.273438 62.398438 9.273438 59.894531 C 9.273438 59.785156 8.367188 49.335938 4.742188 49.335938 C 1.121094 49.335938 0.210938 59.769531 0.210938 59.894531 Z M 6.820312 59.894531 C 6.820312 61.035156 5.890625 61.972656 4.742188 61.972656 C 3.59375 61.972656 2.667969 61.035156 2.667969 59.894531 C 2.667969 58.089844 3.824219 53.210938 4.742188 51.960938 C 5.660156 53.203125 6.828125 58.066406 6.828125 59.894531 Z M 6.820312 59.894531 " style=" stroke:none;fill-rule:nonzero;fill:rgb(0%,0%,0%);fill-opacity:1;" />
</g>
</svg>