<svg xmlns="http://www.w3.org/2000/svg" height="730pt" version="1.1" viewBox="-1 0 730 730.40925" width="730pt">
<g id="surface1">
<path d="M 392.441406 165.570312 C 458.316406 214.027344 516.472656 272.1875 564.925781 338.058594 " style=" stroke:none;fill-rule:nonzero;fill:rgb(0%,0%,0%);fill-opacity:1;" />
<path d="M 523.871094 379.113281 C 457.933594 330.609375 399.730469 272.382812 351.253906 206.425781 " style=" stroke:none;fill-rule:nonzero;fill:rgb(0%,0%,0%);fill-opacity:1;" />
<path d="M 206.933594 352.933594 C 272.804688 401.386719 330.964844 459.550781 379.417969 525.421875 " style=" stroke:none;fill-rule:nonzero;fill:rgb(0%,0%,0%);fill-opacity:1;" />
<path d="M 338.03125 566.476562 C 272.371094 517.96875 214.421875 459.816406 166.140625 393.988281 " style=" stroke:none;fill-rule:nonzero;fill:rgb(0%,0%,0%);fill-opacity:1;" />
<path d="M 535.578125 509.75 C 579.785156 553.996094 651.488281 554.019531 695.730469 509.8125 C 739.976562 465.601562 740 393.898438 695.792969 349.65625 C 662.359375 316.199219 611.65625 307.042969 568.628906 326.695312 C 521.335938 263.425781 465.125 207.328125 401.765625 160.15625 C 427.691406 103.285156 402.605469 36.15625 345.722656 10.222656 C 288.839844 -15.703125 221.714844 9.382812 195.78125 66.261719 C 169.855469 123.136719 194.945312 190.265625 251.828125 216.195312 C 281.738281 229.828125 316.089844 229.789062 345.964844 216.085938 C 393.132812 279.566406 449.25 335.882812 512.566406 383.28125 C 493.101562 426.164062 502.300781 476.625 535.640625 509.886719 Z M 681.8125 363.777344 C 718.285156 400.214844 718.320312 459.316406 681.886719 495.796875 C 645.449219 532.269531 586.347656 532.300781 549.867188 495.871094 C 513.390625 459.4375 513.359375 400.332031 549.792969 363.847656 C 567.269531 346.355469 590.96875 336.507812 615.703125 336.472656 C 640.484375 336.4375 664.277344 346.257812 681.8125 363.777344 Z M 232.914062 179.0625 C 196.476562 142.585938 196.5 83.484375 232.976562 47.042969 C 269.449219 10.597656 328.554688 10.628906 364.992188 47.097656 C 401.433594 83.574219 401.410156 142.679688 364.933594 179.121094 C 347.445312 196.59375 323.746094 206.414062 299.027344 206.433594 C 274.226562 206.453125 250.441406 196.605469 232.914062 179.0625 Z M 363.285156 206.433594 C 368.894531 202.507812 374.140625 198.074219 378.957031 193.210938 C 383.828125 188.398438 388.25 183.152344 392.175781 177.539062 C 452.410156 222.984375 506.035156 276.589844 551.503906 336.804688 C 540.023438 344.632812 530.113281 354.542969 522.285156 366.023438 C 462.152344 320.445312 408.636719 266.738281 363.285156 206.433594 Z M 363.285156 206.433594 " style=" stroke:none;fill-rule:nonzero;fill:rgb(0%,0%,0%);fill-opacity:1;" />
<path d="M 113.25 413.625 C 129.480469 413.621094 145.511719 410.097656 160.257812 403.308594 C 207.449219 466.820312 263.585938 523.15625 326.925781 570.574219 C 301.175781 627.539062 326.480469 694.582031 383.4375 720.332031 C 440.402344 746.085938 507.445312 720.777344 533.195312 663.820312 C 558.949219 606.855469 533.640625 539.8125 476.683594 514.0625 C 447.007812 500.648438 412.984375 500.667969 383.320312 514.113281 C 335.957031 450.753906 279.660156 394.589844 216.1875 347.378906 C 242.039062 290.542969 216.921875 223.515625 160.089844 197.667969 C 103.261719 171.820312 36.226562 196.9375 10.375 253.765625 C -15.472656 310.59375 9.644531 377.621094 66.46875 403.480469 C 81.160156 410.164062 97.113281 413.625 113.25 413.625 Z M 496.039062 551.136719 C 532.480469 587.613281 532.457031 646.714844 495.980469 683.160156 C 459.507812 719.601562 400.398438 719.570312 363.957031 683.101562 C 327.519531 646.625 327.542969 587.523438 364.019531 551.078125 C 381.507812 533.605469 405.210938 523.785156 429.925781 523.765625 C 454.726562 523.746094 478.511719 533.597656 496.039062 551.136719 Z M 365.996094 523.765625 C 360.269531 527.683594 354.914062 532.101562 350 536.988281 C 345.113281 541.910156 340.683594 547.265625 336.777344 552.992188 C 276.648438 507.421875 223.132812 453.734375 177.777344 393.464844 C 183.386719 389.535156 188.632812 385.105469 193.445312 380.242188 C 198.320312 375.425781 202.742188 370.183594 206.667969 364.570312 C 266.898438 409.996094 320.515625 463.574219 365.996094 523.765625 Z M 47.140625 234.460938 C 83.644531 198.683594 142.246094 199.277344 178.03125 235.785156 C 213.808594 272.289062 213.214844 330.894531 176.707031 366.671875 C 140.199219 402.453125 81.597656 401.855469 45.820312 365.351562 C 10.546875 329.355469 10.546875 271.777344 45.820312 235.785156 Z M 47.140625 234.460938 " style=" stroke:none;fill-rule:nonzero;fill:rgb(0%,0%,0%);fill-opacity:1;" />
</g>
</svg>