<svg id="Layer_1" data-name="Layer 1" xmlns="http://www.w3.org/2000/svg" xmlns:xlink="http://www.w3.org/1999/xlink" viewBox="0 0 512 512"><defs><linearGradient id="linear-gradient" x1="256" y1="511.98" x2="256" y2="-85.02" gradientUnits="userSpaceOnUse"><stop offset="0" stop-color="#231f20"/><stop offset="1" stop-color="#58595b"/></linearGradient></defs><title>zoom_out</title><path d="M503.4,438.33l-152-152.2a188.72,188.72,0,0,0,26.81-95.48C378.88,86.1,294.85.75,190.39,0S.75,83.43,0,188,83.31,377.9,187.74,378.64a187.89,187.89,0,0,0,98.82-27.34L438.42,503.38a29.61,29.61,0,0,0,41.77,0l23.21-23.21A29.72,29.72,0,0,0,503.4,438.33Zm-315.34-103c-80.55-.55-145.36-66.36-144.77-147S109.59,42.78,190.12,43.35s145.33,66.38,144.77,147A146.07,146.07,0,0,1,188.06,335.28ZM281.2,174.7v27.39a9.17,9.17,0,0,1-9.14,9.14H107.7a9.16,9.16,0,0,1-9.14-9.14V174.7a9.16,9.16,0,0,1,9.14-9.14H272.05A9.17,9.17,0,0,1,281.2,174.7Z" fill="url(#linear-gradient)"/></svg>