<svg id="Layer_1" data-name="Layer 1" xmlns="http://www.w3.org/2000/svg" xmlns:xlink="http://www.w3.org/1999/xlink" viewBox="0 0 512 512"><defs><linearGradient id="linear-gradient" x1="256" y1="512" x2="256" y2="-85.04" gradientUnits="userSpaceOnUse"><stop offset="0" stop-color="#231f20"/><stop offset="1" stop-color="#58595b"/></linearGradient></defs><title>zoom_in</title><path d="M503.4,438.34l-152-152.21a189.09,189.09,0,0,0,26.81-95.48C378.9,86.08,294.84.74,190.4,0S.75,83.42,0,188,83.3,377.91,187.72,378.65a187.9,187.9,0,0,0,98.82-27.34L438.45,503.39a29.61,29.61,0,0,0,41.77,0l23.18-23.21A29.73,29.73,0,0,0,503.4,438.34ZM188,335.29c-80.54-.55-145.35-66.37-144.77-147s66.31-145.53,146.85-145,145.32,66.39,144.76,147A146.06,146.06,0,0,1,188,335.29Zm91.79-160.6v27.39a9.16,9.16,0,0,1-9.14,9.14H211.34v59.36a9.16,9.16,0,0,1-9.12,9.13H174.81a9.16,9.16,0,0,1-9.12-9.13V211.22H106.34a9.16,9.16,0,0,1-9.14-9.14V174.69a9.16,9.16,0,0,1,9.14-9.14h59.36V106.2a9.15,9.15,0,0,1,9.12-9.13h27.41a9.15,9.15,0,0,1,9.12,9.13v59.36H270.7A9.16,9.16,0,0,1,279.83,174.69Z" fill="url(#linear-gradient)"/></svg>