<svg height="512pt" viewBox="0 -14 512.00075 512" width="512pt" xmlns="http://www.w3.org/2000/svg"><path d="m452.132812 236.953125c-2.8125-2.8125-6.625-4.394531-10.605468-4.394531-3.976563 0-7.792969 1.578125-10.605469 4.394531-2.441406 2.441406-59.867187 60.566406-59.867187 121.550781 0 38.855469 31.613281 70.46875 70.46875 70.472656h.003906c38.855468-.003906 70.472656-31.613281 70.472656-70.472656-.003906-60.984375-57.421875-119.105468-59.867188-121.550781zm0 0"/><path d="m374.953125 259.378906c16.230469-24.867187 32.910156-41.792968 34.753906-43.636718 3.671875-3.671876 7.867188-6.625 12.414063-8.800782l-174.8125-174.8125c-2.929688-2.929687-6.769532-4.394531-10.605469-4.394531-3.839844 0-7.675781 1.464844-10.605469 4.394531l-48.515625 48.515625 100.613281 100.621094c5.421876 2.382813 10.414063 5.765625 14.726563 10.078125 18.820313 18.824219 18.824219 49.457031 0 68.28125-9.121094 9.117188-21.246094 14.140625-34.144531 14.140625-12.894532 0-25.019532-5.023437-34.140625-14.140625-9.117188-9.121094-14.140625-21.246094-14.140625-34.140625 0-12.898437 5.023437-25.023437 14.144531-34.140625 3.65625-3.65625 7.804687-6.644531 12.285156-8.925781l-178.023437-178.023438c-5.855469-5.859375-15.351563-5.859375-21.210938 0-5.859375 5.855469-5.859375 15.351563 0 21.210938l97.460938 97.464843-118.597656 118.605469c-22.070313 22.066407-22.074219 57.976563-.003907 80.050781l145.992188 145.984376c10.65625 10.65625 24.871093 16.523437 40.023437 16.523437h.003906c15.148438 0 29.363282-5.867187 40.023438-16.523437l98.976562-98.984376c-.339843-3.363281-.515624-6.773437-.515624-10.222656 0-31.320312 11.40625-64.671875 33.898437-99.125zm0 0"/></svg>